<svg width="600" height="567" viewBox="0 0 600 567" fill="none" xmlns="http://www.w3.org/2000/svg">
<path d="M101.674 168.901V184.512H129.014V195.482H101.674V217H88.0038V157.932H132.643V168.901H101.674ZM177.423 217L166.031 200.545H165.356H153.458V217H139.788V157.932H165.356C170.588 157.932 175.116 158.803 178.942 160.547C182.823 162.291 185.805 164.767 187.886 167.973C189.968 171.18 191.008 174.977 191.008 179.365C191.008 183.753 189.94 187.55 187.802 190.757C185.72 193.907 182.739 196.326 178.857 198.014L192.105 217H177.423ZM177.17 179.365C177.17 176.046 176.101 173.514 173.963 171.77C171.825 169.97 168.703 169.07 164.596 169.07H153.458V189.66H164.596C168.703 189.66 171.825 188.76 173.963 186.959C176.101 185.159 177.17 182.628 177.17 179.365ZM228.336 218.013C222.204 218.013 216.663 216.691 211.712 214.047C206.818 211.403 202.964 207.774 200.152 203.161C197.395 198.492 196.017 193.26 196.017 187.466C196.017 181.671 197.395 176.468 200.152 171.855C202.964 167.186 206.818 163.529 211.712 160.885C216.663 158.241 222.204 156.919 228.336 156.919C234.468 156.919 239.981 158.241 244.875 160.885C249.769 163.529 253.623 167.186 256.435 171.855C259.248 176.468 260.655 181.671 260.655 187.466C260.655 193.26 259.248 198.492 256.435 203.161C253.623 207.774 249.769 211.403 244.875 214.047C239.981 216.691 234.468 218.013 228.336 218.013ZM228.336 206.368C231.824 206.368 234.974 205.58 237.787 204.005C240.599 202.374 242.793 200.123 244.369 197.254C246 194.385 246.816 191.122 246.816 187.466C246.816 183.809 246 180.546 244.369 177.677C242.793 174.808 240.599 172.586 237.787 171.011C234.974 169.38 231.824 168.564 228.336 168.564C224.848 168.564 221.697 169.38 218.885 171.011C216.072 172.586 213.85 174.808 212.218 177.677C210.643 180.546 209.856 183.809 209.856 187.466C209.856 191.122 210.643 194.385 212.218 197.254C213.85 200.123 216.072 202.374 218.885 204.005C221.697 205.58 224.848 206.368 228.336 206.368ZM322.993 157.932V217H311.77L282.32 181.137V217H268.819V157.932H280.126L309.492 193.795V157.932H322.993ZM347.094 169.07H328.192V157.932H379.666V169.07H360.764V217H347.094V169.07Z" fill="#4F4F4F"/>
<path d="M88.0038 260.598H101.674V319.667H88.0038V260.598ZM135.1 320.68C130.431 320.68 125.903 320.061 121.515 318.823C117.183 317.529 113.695 315.87 111.051 313.845L115.692 303.55C118.224 305.406 121.233 306.897 124.721 308.022C128.209 309.147 131.697 309.71 135.185 309.71C139.066 309.71 141.935 309.147 143.792 308.022C145.648 306.841 146.577 305.294 146.577 303.381C146.577 301.975 146.014 300.821 144.889 299.921C143.82 298.965 142.414 298.205 140.67 297.643C138.982 297.08 136.676 296.462 133.75 295.786C129.25 294.718 125.565 293.649 122.696 292.58C119.827 291.511 117.352 289.795 115.27 287.432C113.245 285.07 112.232 281.919 112.232 277.982C112.232 274.55 113.161 271.456 115.017 268.699C116.874 265.887 119.658 263.664 123.371 262.033C127.14 260.402 131.725 259.586 137.126 259.586C140.895 259.586 144.579 260.036 148.18 260.936C151.78 261.836 154.931 263.13 157.631 264.818L153.412 275.197C147.955 272.103 142.498 270.556 137.041 270.556C133.216 270.556 130.375 271.175 128.518 272.412C126.718 273.65 125.818 275.281 125.818 277.306C125.818 279.332 126.859 280.851 128.94 281.863C131.078 282.82 134.313 283.776 138.645 284.732C143.145 285.801 146.83 286.87 149.699 287.939C152.568 289.008 155.015 290.695 157.04 293.002C159.122 295.308 160.162 298.43 160.162 302.368C160.162 305.744 159.206 308.838 157.293 311.651C155.437 314.407 152.624 316.601 148.855 318.232C145.086 319.864 140.501 320.68 135.1 320.68Z" fill="#4F4F4F"/>
<path d="M126.905 409.676H99.48L94.2482 422.333H80.2405L106.568 363.265H120.07L146.482 422.333H132.136L126.905 409.676ZM122.601 399.297L113.235 376.682L103.868 399.297H122.601ZM240.362 363.265L221.038 422.333H206.355L193.36 382.336L179.943 422.333H165.345L145.936 363.265H160.113L173.445 404.782L187.369 363.265H200.026L213.528 405.119L227.282 363.265H240.362ZM295.417 411.364V422.333H249.681V363.265H294.32V374.235H263.267V387.061H290.691V397.693H263.267V411.364H295.417ZM327.389 423.346C322.72 423.346 318.192 422.727 313.804 421.49C309.472 420.196 305.984 418.536 303.34 416.511L307.981 406.216C310.513 408.073 313.522 409.563 317.01 410.689C320.498 411.814 323.986 412.376 327.474 412.376C331.355 412.376 334.225 411.814 336.081 410.689C337.937 409.507 338.866 407.96 338.866 406.047C338.866 404.641 338.303 403.488 337.178 402.588C336.109 401.631 334.703 400.872 332.959 400.309C331.271 399.747 328.965 399.128 326.039 398.453C321.539 397.384 317.854 396.315 314.985 395.246C312.116 394.178 309.641 392.462 307.559 390.099C305.534 387.736 304.522 384.586 304.522 380.648C304.522 377.216 305.45 374.122 307.306 371.366C309.163 368.553 311.947 366.331 315.66 364.7C319.429 363.068 324.014 362.252 329.415 362.252C333.184 362.252 336.869 362.702 340.469 363.603C344.069 364.503 347.22 365.797 349.92 367.484L345.701 377.863C340.244 374.769 334.787 373.222 329.33 373.222C325.505 373.222 322.664 373.841 320.808 375.079C319.007 376.316 318.107 377.948 318.107 379.973C318.107 381.998 319.148 383.517 321.229 384.53C323.367 385.486 326.602 386.442 330.934 387.399C335.434 388.468 339.119 389.536 341.988 390.605C344.857 391.674 347.304 393.362 349.329 395.668C351.411 397.975 352.451 401.097 352.451 405.035C352.451 408.41 351.495 411.504 349.582 414.317C347.726 417.074 344.913 419.268 341.144 420.899C337.375 422.53 332.79 423.346 327.389 423.346ZM392.086 423.346C385.954 423.346 380.413 422.024 375.462 419.38C370.568 416.736 366.715 413.108 363.902 408.495C361.145 403.825 359.767 398.594 359.767 392.799C359.767 387.005 361.145 381.801 363.902 377.188C366.715 372.519 370.568 368.862 375.462 366.218C380.413 363.574 385.954 362.252 392.086 362.252C398.218 362.252 403.731 363.574 408.625 366.218C413.519 368.862 417.373 372.519 420.186 377.188C422.998 381.801 424.405 387.005 424.405 392.799C424.405 398.594 422.998 403.825 420.186 408.495C417.373 413.108 413.519 416.736 408.625 419.38C403.731 422.024 398.218 423.346 392.086 423.346ZM392.086 411.701C395.574 411.701 398.724 410.914 401.537 409.338C404.35 407.707 406.544 405.457 408.119 402.588C409.75 399.719 410.566 396.456 410.566 392.799C410.566 389.143 409.75 385.88 408.119 383.011C406.544 380.142 404.35 377.92 401.537 376.344C398.724 374.713 395.574 373.897 392.086 373.897C388.598 373.897 385.448 374.713 382.635 376.344C379.822 377.92 377.6 380.142 375.969 383.011C374.394 385.88 373.606 389.143 373.606 392.799C373.606 396.456 374.394 399.719 375.969 402.588C377.6 405.457 379.822 407.707 382.635 409.338C385.448 410.914 388.598 411.701 392.086 411.701ZM490.119 422.333L490.034 386.892L472.651 416.089H466.491L449.193 387.652V422.333H436.366V363.265H447.674L469.782 399.972L491.553 363.265H502.776L502.945 422.333H490.119ZM564.383 411.364V422.333H518.647V363.265H563.286V374.235H532.233V387.061H559.657V397.693H532.233V411.364H564.383Z" fill="#4F4F4F"/>
<rect x="44.283" y="94.283" width="354.434" height="375.434" stroke="#4F4F4F" stroke-width="8.56592"/>
</svg>
